REM DIRINDEX 1\6,1\2\7,1\2\8,1\2\9,1\3\10,1\3\11,1\4\12,1\4\13,1\4\14,1\5\15,1\5\16,1\5\17
REM DIRNAME folder01,folder02,folder03,folder04,folder05,folder06,folder07,folder08,folder09,folder10,folder11,folder12,folder13,folder14,folder15,folder16,folder17
TITLE ""
FILE "3Q_t_0876-0891.mp3" MP3
  TRACK 01 AUDIO
    TITLE "10:cjc041_3363"
    INDEX 01 00:00:00
  TRACK 02 AUDIO
    TITLE "0:"
    INDEX 01 00:01:05
  TRACK 03 AUDIO
    TITLE "11:cjc041_3364"
    INDEX 01 00:01:56
  TRACK 04 AUDIO
    TITLE "0:"
    INDEX 01 00:03:19
  TRACK 05 AUDIO
    TITLE "10:cjc041_3365"
    INDEX 01 00:03:74
  TRACK 06 AUDIO
    TITLE "0:"
    INDEX 01 00:05:22
  TRACK 07 AUDIO
    TITLE "11:cjc041_3366"
    INDEX 01 00:05:65
  TRACK 08 AUDIO
    TITLE "0:"
    INDEX 01 00:07:07
  TRACK 09 AUDIO
    TITLE "10:cjc041_3367"
    INDEX 01 00:07:56
  TRACK 10 AUDIO
    TITLE "0:"
    INDEX 01 00:09:12
  TRACK 11 AUDIO
    TITLE "11:cjc041_3368"
    INDEX 01 00:09:59
  TRACK 12 AUDIO
    TITLE "0:"
    INDEX 01 00:12:18
  TRACK 13 AUDIO
    TITLE "10:cjc041_3369"
    INDEX 01 00:12:67
  TRACK 14 AUDIO
    TITLE "0:"
    INDEX 01 00:14:29
  TRACK 15 AUDIO
    TITLE "11:cjc041_3370"
    INDEX 01 00:15:05
  TRACK 16 AUDIO
    TITLE "0:"
    INDEX 01 00:16:34
  TRACK 17 AUDIO
    TITLE "10:cjc041_3371"
    INDEX 01 00:17:10
  TRACK 18 AUDIO
    TITLE "0:"
    INDEX 01 00:18:27
  TRACK 19 AUDIO
    TITLE "11:cjc041_3372"
    INDEX 01 00:18:74
  TRACK 20 AUDIO
    TITLE "0:"
    INDEX 01 00:20:12
  TRACK 21 AUDIO
    TITLE "10:cjc041_3373"
    INDEX 01 00:20:67
  TRACK 22 AUDIO
    TITLE "0:"
    INDEX 01 00:21:68
  TRACK 23 AUDIO
    TITLE "11:cjc041_3374"
    INDEX 01 00:22:44
  TRACK 24 AUDIO
    TITLE "0:"
    INDEX 01 00:23:44
  TRACK 25 AUDIO
    TITLE "10:cjc041_3375"
    INDEX 01 00:24:22
  TRACK 26 AUDIO
    TITLE "0:"
    INDEX 01 00:25:27
  TRACK 27 AUDIO
    TITLE "11:cjc041_3376"
    INDEX 01 00:25:74
  TRACK 28 AUDIO
    TITLE "0:"
    INDEX 01 00:27:04
  TRACK 29 AUDIO
    TITLE "10:cjc041_3377"
    INDEX 01 00:27:53
  TRACK 30 AUDIO
    TITLE "0:"
    INDEX 01 00:28:74
  TRACK 31 AUDIO
    TITLE "11:cjc041_3378"
    INDEX 01 00:29:50
  TRACK 32 AUDIO
    TITLE "0:"
    INDEX 01 00:30:61
  TRACK 33 AUDIO
    TITLE "10:cjc041_3379"
    INDEX 01 00:31:35
  TRACK 34 AUDIO
    TITLE "0:"
    INDEX 01 00:32:56
  TRACK 35 AUDIO
    TITLE "11:cjc041_3380"
    INDEX 01 00:33:40
  TRACK 36 AUDIO
    TITLE "0:"
    INDEX 01 00:34:49
  TRACK 37 AUDIO
    TITLE "10:cjc041_3381"
    INDEX 01 00:35:31
  TRACK 38 AUDIO
    TITLE "0:"
    INDEX 01 00:36:50
  TRACK 39 AUDIO
    TITLE "11:cjc041_3382"
    INDEX 01 00:37:28
  TRACK 40 AUDIO
    TITLE "0:"
    INDEX 01 00:39:62
  TRACK 41 AUDIO
    TITLE "10:cjc041_3383"
    INDEX 01 00:40:42
  TRACK 42 AUDIO
    TITLE "0:"
    INDEX 01 00:41:57
  TRACK 43 AUDIO
    TITLE "11:cjc041_3384"
    INDEX 01 00:42:35
  TRACK 44 AUDIO
    TITLE "0:"
    INDEX 01 00:43:39
  TRACK 45 AUDIO
    TITLE "10:cjc041_3385"
    INDEX 01 00:44:16
  TRACK 46 AUDIO
    TITLE "0:"
    INDEX 01 00:45:37
  TRACK 47 AUDIO
    TITLE "11:cjc041_3386"
    INDEX 01 00:46:13
  TRACK 48 AUDIO
    TITLE "0:"
    INDEX 01 00:47:27
  TRACK 49 AUDIO
    TITLE "10:cjc041_3387"
    INDEX 01 00:48:06
  TRACK 50 AUDIO
    TITLE "0:"
    INDEX 01 00:49:35
  TRACK 51 AUDIO
    TITLE "11:cjc041_3388"
    INDEX 01 00:50:13
  TRACK 52 AUDIO
    TITLE "0:"
    INDEX 01 00:52:65
  TRACK 53 AUDIO
    TITLE "10:cjc041_3389"
    INDEX 01 00:53:43
  TRACK 54 AUDIO
    TITLE "0:"
    INDEX 01 00:54:68
  TRACK 55 AUDIO
    TITLE "11:cjc041_3390"
    INDEX 01 00:55:42
  TRACK 56 AUDIO
    TITLE "0:"
    INDEX 01 00:57:54
  TRACK 57 AUDIO
    TITLE "10:cjc041_3391"
    INDEX 01 00:58:32
  TRACK 58 AUDIO
    TITLE "0:"
    INDEX 01 00:59:53
  TRACK 59 AUDIO
    TITLE "11:cjc041_3392"
    INDEX 01 01:00:31
  TRACK 60 AUDIO
    TITLE "0:"
    INDEX 01 01:03:00
  TRACK 61 AUDIO
    TITLE "10:cjc041_3393"
    INDEX 01 01:03:55
  TRACK 62 AUDIO
    TITLE "0:"
    INDEX 01 01:04:70
  TRACK 63 AUDIO
    TITLE "11:cjc041_3394"
    INDEX 01 01:05:40
  TRACK 64 AUDIO
    TITLE "0:"
    INDEX 01 01:06:67
